<svg xmlns="http://www.w3.org/2000/svg" xmlns:xlink="http://www.w3.org/1999/xlink" width="500" zoomAndPan="magnify" viewBox="0 0 375 374.999991" height="500" preserveAspectRatio="xMidYMid meet" version="1.0"><defs><clipPath id="29bed9836c"><path d="M 101 37.5 L 273 37.5 L 273 337.5 L 101 337.5 Z M 101 37.5 " clip-rule="nonzero"/></clipPath></defs><g clip-path="url(#29bed9836c)"><path fill="#10b981" d="M 183.371094 37.199219 C 184.085938 37.191406 184.796875 37.183594 185.535156 37.175781 C 186.324219 37.179688 187.113281 37.183594 187.902344 37.1875 C 188.734375 37.183594 189.566406 37.179688 190.398438 37.171875 C 192.660156 37.160156 194.917969 37.160156 197.179688 37.164062 C 199.066406 37.167969 200.953125 37.164062 202.839844 37.160156 C 207.292969 37.148438 211.746094 37.152344 216.199219 37.164062 C 220.789062 37.171875 225.382812 37.164062 229.976562 37.144531 C 233.917969 37.128906 237.863281 37.125 241.804688 37.128906 C 244.160156 37.132812 246.515625 37.128906 248.871094 37.117188 C 251.085938 37.109375 253.300781 37.113281 255.515625 37.125 C 256.328125 37.128906 257.140625 37.125 257.953125 37.121094 C 264.855469 37.0625 264.855469 37.0625 266.789062 38.875 C 268.171875 41.058594 268.253906 41.96875 267.773438 44.53125 C 266.65625 46.8125 265.289062 48.898438 263.890625 51.011719 C 263.496094 51.628906 263.097656 52.246094 262.6875 52.882812 C 261.863281 54.164062 261.035156 55.441406 260.203125 56.71875 C 258.714844 59.007812 257.25 61.3125 255.789062 63.617188 C 254.773438 65.222656 253.753906 66.820312 252.734375 68.417969 C 250.902344 71.292969 249.082031 74.167969 247.265625 77.050781 C 244.738281 81.0625 242.195312 85.0625 239.648438 89.0625 C 235.921875 94.914062 232.214844 100.773438 228.515625 106.640625 C 227.367188 108.460938 226.222656 110.277344 225.074219 112.097656 C 224.789062 112.546875 224.503906 113 224.210938 113.464844 C 222.59375 116.023438 220.972656 118.582031 219.34375 121.132812 C 218.980469 121.703125 218.617188 122.269531 218.242188 122.855469 C 217.546875 123.949219 216.847656 125.039062 216.148438 126.132812 C 215.828125 126.636719 215.503906 127.144531 215.171875 127.664062 C 214.890625 128.101562 214.609375 128.539062 214.320312 128.992188 C 212.769531 131.484375 211.269531 134.003906 209.765625 136.523438 C 210.5 136.527344 211.234375 136.53125 211.992188 136.535156 C 218.914062 136.566406 225.839844 136.609375 232.761719 136.660156 C 236.320312 136.6875 239.878906 136.710938 243.441406 136.726562 C 246.875 136.742188 250.308594 136.765625 253.742188 136.792969 C 255.054688 136.804688 256.363281 136.8125 257.675781 136.816406 C 259.511719 136.820312 261.34375 136.835938 263.179688 136.855469 C 263.722656 136.855469 264.265625 136.855469 264.824219 136.851562 C 267.640625 136.894531 269.605469 137.003906 271.875 138.867188 C 272.910156 140.933594 272.839844 143.058594 272.460938 145.3125 C 271.539062 146.992188 270.316406 148.269531 268.980469 149.632812 C 268.273438 150.398438 267.566406 151.167969 266.863281 151.933594 C 266.339844 152.488281 266.339844 152.488281 265.808594 153.054688 C 264.53125 154.441406 263.347656 155.890625 262.171875 157.359375 C 260.171875 159.828125 258.125 162.246094 256.054688 164.648438 C 253.972656 167.066406 251.914062 169.496094 249.902344 171.972656 C 247.332031 175.136719 244.679688 178.226562 242.023438 181.316406 C 238.363281 185.574219 234.730469 189.847656 231.1875 194.203125 C 228.605469 197.375 225.941406 200.480469 223.273438 203.582031 C 219.613281 207.839844 215.980469 212.113281 212.4375 216.46875 C 209.855469 219.640625 207.191406 222.746094 204.523438 225.847656 C 200.863281 230.105469 197.230469 234.378906 193.6875 238.734375 C 191.105469 241.90625 188.441406 245.011719 185.773438 248.113281 C 182.113281 252.371094 178.480469 256.644531 174.9375 261 C 172.355469 264.171875 169.691406 267.277344 167.023438 270.378906 C 163.363281 274.636719 159.730469 278.910156 156.1875 283.265625 C 153.605469 286.4375 150.941406 289.542969 148.273438 292.644531 C 144.613281 296.902344 140.980469 301.175781 137.4375 305.53125 C 134.855469 308.703125 132.191406 311.808594 129.523438 314.910156 C 127.808594 316.90625 126.101562 318.90625 124.402344 320.910156 C 124.136719 321.226562 123.871094 321.539062 123.59375 321.863281 C 121.910156 323.855469 120.257812 325.875 118.617188 327.90625 C 118.191406 328.417969 117.769531 328.929688 117.332031 329.460938 C 116.398438 330.589844 115.480469 331.734375 114.570312 332.886719 C 110.972656 337.226562 110.972656 337.226562 108.695312 337.984375 C 106.484375 338.085938 105.257812 337.753906 103.417969 336.511719 C 102.421875 334.976562 102.144531 334.042969 101.953125 332.226562 C 102.363281 330.550781 102.363281 330.550781 103.074219 328.660156 C 103.207031 328.308594 103.339844 327.957031 103.472656 327.59375 C 105.210938 323.039062 107.164062 318.566406 109.109375 314.097656 C 110.292969 311.367188 111.46875 308.636719 112.644531 305.902344 C 112.882812 305.351562 113.121094 304.800781 113.363281 304.230469 C 115.542969 299.164062 117.675781 294.074219 119.789062 288.976562 C 123.054688 281.101562 126.355469 273.246094 129.675781 265.394531 C 133.34375 256.722656 136.992188 248.042969 140.625 239.355469 C 144.171875 230.871094 147.726562 222.394531 151.300781 213.921875 C 151.796875 212.746094 152.292969 211.570312 152.789062 210.394531 C 153.476562 208.761719 154.164062 207.132812 154.851562 205.5 C 155.054688 205.015625 155.261719 204.53125 155.46875 204.03125 C 155.660156 203.585938 155.847656 203.136719 156.042969 202.675781 C 156.207031 202.289062 156.371094 201.902344 156.539062 201.503906 C 157.058594 200.332031 157.621094 199.1875 158.203125 198.046875 C 157.570312 198.050781 156.9375 198.050781 156.289062 198.054688 C 150.332031 198.078125 144.371094 198.097656 138.414062 198.109375 C 135.351562 198.113281 132.289062 198.121094 129.226562 198.136719 C 126.269531 198.148438 123.316406 198.15625 120.359375 198.15625 C 119.230469 198.160156 118.105469 198.164062 116.976562 198.171875 C 115.398438 198.179688 113.816406 198.179688 112.238281 198.179688 C 111.773438 198.183594 111.304688 198.1875 110.824219 198.191406 C 107.882812 198.183594 105.652344 197.890625 103.269531 196.105469 C 102.304688 194.796875 102.144531 193.800781 101.953125 192.1875 C 102.300781 190.839844 102.300781 190.839844 102.898438 189.464844 C 103.117188 188.953125 103.339844 188.441406 103.566406 187.914062 C 104.78125 185.277344 106.042969 182.671875 107.34375 180.078125 C 107.644531 179.476562 107.941406 178.875 108.25 178.253906 C 109.25 176.253906 110.25 174.253906 111.25 172.253906 C 111.96875 170.8125 112.6875 169.371094 113.402344 167.933594 C 115.148438 164.4375 116.894531 160.941406 118.640625 157.445312 C 120.058594 154.605469 121.480469 151.765625 122.898438 148.921875 C 126.921875 140.863281 130.949219 132.800781 134.980469 124.742188 C 135.195312 124.308594 135.414062 123.875 135.636719 123.429688 C 135.855469 122.996094 136.070312 122.5625 136.296875 122.113281 C 139.820312 115.066406 143.339844 108.015625 146.855469 100.964844 C 150.46875 93.722656 154.085938 86.476562 157.710938 79.234375 C 159.742188 75.171875 161.773438 71.105469 163.796875 67.039062 C 165.523438 63.582031 167.25 60.125 168.980469 56.667969 C 169.863281 54.90625 170.746094 53.144531 171.625 51.378906 C 172.574219 49.464844 173.535156 47.554688 174.492188 45.648438 C 174.90625 44.808594 174.90625 44.808594 175.332031 43.953125 C 178.738281 37.210938 178.738281 37.210938 183.371094 37.199219 Z M 183.371094 37.199219 " fill-opacity="1" fill-rule="nonzero"/></g></svg>